<svg width="100" height="100" viewBox="0 0 100 100" fill="none" xmlns="http://www.w3.org/2000/svg">
<path d="M50 5C41.0998 4.99999 32.3995 7.63918 24.9993 12.5838C17.5991 17.5285 11.8313 24.5565 8.42538 32.7792C5.01943 41.0019 4.12827 50.0499 5.8646 58.779C7.60093 67.5082 11.8868 75.5264 18.1801 81.8198C24.4735 88.1132 32.4917 92.399 41.2209 94.1353C49.95 95.8717 58.998 94.9805 67.2207 91.5746C75.4434 88.1686 82.4714 82.4009 87.4161 75.0007C92.3607 67.6005 94.9999 58.9002 94.9999 50C94.9999 38.0653 90.2588 26.6194 81.8197 18.1803C73.3806 9.74115 61.9347 5.00007 50 5V5ZM50 93C40.0517 93 30.4111 89.5506 22.721 83.2395C15.0308 76.9284 9.76684 68.1461 7.82599 58.3889C5.88513 48.6318 7.38749 38.5035 12.0771 29.7299C16.7666 20.9562 24.3533 14.08 33.5443 10.273C42.7353 6.46588 52.9621 5.96344 62.482 8.85125C72.002 11.7391 80.2261 17.8385 85.7531 26.1102C91.2801 34.3819 93.768 44.3141 92.793 54.2145C91.8179 64.1149 87.4401 73.3709 80.4056 80.4055C76.4173 84.4046 71.6779 87.576 66.4598 89.7374C61.2418 91.8988 55.648 93.0076 50 93V93Z" fill="white"/>
<path d="M56.7773 48.8794C56.9309 49.2534 57.0066 49.6548 56.9996 50.059C56.9926 50.4632 56.9032 50.8617 56.7368 51.2302C56.5704 51.5986 56.3305 51.9293 56.0318 52.2017C55.7332 52.4742 55.3821 52.6829 54.9999 52.8149V50.6568L53 52.6567V69.144C53.0015 69.3771 52.9514 69.6077 52.8534 69.8192C52.7553 70.0307 52.6118 70.2179 52.433 70.3675C52.0447 70.697 51.5518 70.8775 51.0425 70.8765C50.5801 70.8785 50.131 70.7221 49.7697 70.4334L42.0017 63.655L40.5842 65.0725L48.4822 71.9643L48.5159 71.9924C49.2328 72.5663 50.1242 72.8782 51.0426 72.8764C52.0354 72.8781 52.9957 72.5225 53.7479 71.8744C54.1412 71.5366 54.4568 71.1176 54.6729 70.6463C54.889 70.175 55.0006 69.6625 54.9999 69.144V54.899C55.7876 54.742 56.5255 54.3966 57.1505 53.8922C57.7756 53.3878 58.2691 52.7395 58.5889 52.0027C58.9087 51.266 59.0452 50.4627 58.9869 49.6617C58.9285 48.8606 58.6769 48.0857 58.2537 47.4031L56.7773 48.8794Z" fill="white"/>
<path d="M62.6757 42.9811L61.2482 44.4086C62.6303 46.2079 63.3104 48.4487 63.1615 50.7126C63.0127 52.9766 62.045 55.109 60.4393 56.7119C60.2518 56.8995 60.1464 57.1538 60.1465 57.4191C60.1465 57.6843 60.2519 57.9387 60.4394 58.1262C60.627 58.3137 60.8814 58.419 61.1466 58.419C61.4118 58.419 61.6662 58.3136 61.8537 58.126C63.8339 56.1471 65.0132 53.5064 65.1649 50.711C65.3166 47.9156 64.4301 45.1627 62.6757 42.9811L62.6757 42.9811Z" fill="white"/>
<path d="M66.6806 38.9761L65.2662 40.3905C67.7845 43.092 69.155 46.666 69.0885 50.3586C69.0221 54.0512 67.524 57.5737 64.9102 60.1829C64.8173 60.2757 64.7436 60.3859 64.6933 60.5073C64.6431 60.6286 64.6172 60.7586 64.6171 60.8899C64.6171 61.0213 64.643 61.1513 64.6932 61.2727C64.7435 61.394 64.8171 61.5043 64.9099 61.5971C65.0028 61.69 65.113 61.7637 65.2344 61.814C65.3557 61.8642 65.4857 61.8901 65.617 61.8901C65.7484 61.8902 65.8784 61.8643 65.9997 61.8141C66.1211 61.7638 66.2313 61.6902 66.3242 61.5973C69.3132 58.6132 71.0222 54.5821 71.0888 50.359C71.1553 46.1359 69.5741 42.0529 66.6806 38.9761V38.9761Z" fill="white"/>
<path d="M70.6443 35.0125L69.281 36.3757C69.3097 36.4294 69.3434 36.4802 69.3818 36.5275H69.3818C71.163 38.3087 72.5759 40.4233 73.5399 42.7505C74.5038 45.0778 75 47.5721 75 50.0911C75 52.6101 74.5038 55.1044 73.5398 57.4316C72.5758 59.7589 71.1629 61.8735 69.3817 63.6547C69.1942 63.8422 69.0888 64.0966 69.0888 64.3618C69.0888 64.627 69.1942 64.8814 69.3817 65.0689C69.5693 65.2565 69.8236 65.3618 70.0889 65.3618C70.3541 65.3618 70.6085 65.2565 70.796 65.0689C74.7683 61.0965 77 55.7088 76.9999 50.091C76.9999 44.4732 74.7683 39.0855 70.7959 35.1131C70.7487 35.0748 70.6979 35.0411 70.6443 35.0125V35.0125Z" fill="white"/>
<path d="M26.5 58.9999H33.625L34.5425 59.8006L35.96 58.3831L35 57.5454V42.4545L49.7697 29.5664C50.1309 29.2776 50.5801 29.1213 51.0425 29.1233C51.5518 29.1223 52.0447 29.3028 52.433 29.6323C52.6119 29.7819 52.7554 29.9692 52.8534 30.1807C52.9514 30.3923 53.0015 30.6229 53 30.856V41.3431L54.9999 39.3432V30.856C55.0006 30.3375 54.889 29.8249 54.6729 29.3536C54.4568 28.8822 54.1413 28.4632 53.7479 28.1254C52.9957 27.4773 52.0354 27.1216 51.0425 27.1234C50.1241 27.1215 49.2326 27.4335 48.5157 28.0076L48.4821 28.0356L33.625 41H26.5C26.0202 41.0049 25.547 41.1129 25.1126 41.3166C24.6781 41.5203 24.2925 41.815 23.9818 42.1807C23.342 42.9248 22.9932 43.8755 23 44.8569V55.1431C22.9932 56.1245 23.342 57.0751 23.9818 57.8193C24.2925 58.185 24.6781 58.4796 25.1126 58.6833C25.547 58.887 26.0202 58.995 26.5 58.9999V58.9999ZM24.9999 44.8569C24.9936 44.3601 25.1664 43.8775 25.4869 43.4978C25.6097 43.3465 25.7639 43.2236 25.9388 43.1377C26.1137 43.0518 26.3052 43.0048 26.5 42.9999H32.9999L33 57H26.5C26.3052 56.9952 26.1137 56.9482 25.9388 56.8622C25.7639 56.7763 25.6097 56.6535 25.4869 56.5022C25.1665 56.1224 24.9936 55.6399 24.9999 55.1431V44.8569Z" fill="white"/>
<path d="M75.2929 23.2929L23.2929 75.2929C23.1053 75.4804 23 75.7348 23 76C23 76.2652 23.1053 76.5196 23.2929 76.7071C23.4804 76.8946 23.7348 77 24 77C24.2652 77 24.5196 76.8946 24.7071 76.7071L76.7071 24.7071C76.8946 24.5196 77 24.2652 77 24C77 23.7348 76.8946 23.4804 76.7071 23.2929C76.5196 23.1053 76.2652 23 76 23C75.7348 23 75.4804 23.1053 75.2929 23.2929V23.2929Z" fill="white"/>
</svg>
