<svg width="100" height="100" viewBox="0 0 100 100" fill="none" xmlns="http://www.w3.org/2000/svg">
<path d="M50 5C41.0998 4.99999 32.3995 7.63918 24.9993 12.5838C17.5991 17.5285 11.8313 24.5565 8.42538 32.7792C5.01943 41.0019 4.12827 50.0499 5.8646 58.779C7.60092 67.5082 11.8868 75.5264 18.1801 81.8198C24.4735 88.1132 32.4917 92.399 41.2209 94.1353C49.95 95.8717 58.998 94.9805 67.2207 91.5746C75.4434 88.1686 82.4714 82.4009 87.4161 75.0007C92.3607 67.6005 94.9999 58.9002 94.9999 50C94.9998 38.0653 90.2587 26.6195 81.8196 18.1804C73.3805 9.74128 61.9347 5.00017 50 5V5ZM50 93C40.0516 93.0001 30.4109 89.5507 22.7207 83.2396C15.0304 76.9285 9.76632 68.1461 7.82541 58.3889C5.8845 48.6316 7.38682 38.5033 12.0764 29.7295C16.766 20.9558 24.3527 14.0795 33.5438 10.2724C42.7349 6.46526 52.9617 5.96281 62.4818 8.85064C72.0018 11.7385 80.226 17.8379 85.7531 26.1097C91.2801 34.3815 93.7681 44.3138 92.7929 54.2143C91.8178 64.1148 87.44 73.3709 80.4055 80.4055C76.4171 84.4045 71.6777 87.5759 66.4597 89.7373C61.2417 91.8987 55.648 93.0075 50 93V93Z" fill="white"/>
<path d="M54.9999 45.101V30.856C55.0006 30.3375 54.889 29.8249 54.6728 29.3536C54.4567 28.8822 54.1411 28.4632 53.7478 28.1253C52.9955 27.4773 52.0352 27.1216 51.0423 27.1233C50.1239 27.1215 49.2324 27.4335 48.5156 28.0076L48.4821 28.0356L33.6251 41H26.5C26.0202 41.005 25.547 41.1129 25.1126 41.3166C24.6781 41.5203 24.2925 41.815 23.9818 42.1807C23.342 42.9249 22.9932 43.8755 23 44.8569V55.1431C22.9932 56.1245 23.342 57.0751 23.9818 57.8193C24.2925 58.1849 24.6781 58.4796 25.1126 58.6833C25.547 58.887 26.0202 58.995 26.5 58.9999H33.6251L48.4821 71.9644L48.5157 71.9924C49.2326 72.5664 50.1239 72.8783 51.0422 72.8765C52.0351 72.8782 52.9954 72.5226 53.7477 71.8746C54.1411 71.5368 54.4567 71.1178 54.6728 70.6464C54.889 70.1751 55.0006 69.6625 54.9999 69.144V54.899C56.1291 54.6685 57.1441 54.055 57.873 53.1623C58.6019 52.2696 59 51.1525 59 50C59 48.8475 58.6019 47.7304 57.873 46.8377C57.1441 45.945 56.1291 45.3315 54.9999 45.101V45.101ZM52.4329 70.3675C52.0446 70.6971 51.5516 70.8776 51.0423 70.8766C50.5799 70.8787 50.1308 70.7223 49.7696 70.4335L35 57.5454V42.4545L49.7698 29.5663C50.1309 29.2776 50.58 29.1212 51.0423 29.1233C51.5516 29.1223 52.0446 29.3028 52.433 29.6323C52.6118 29.7819 52.7554 29.9692 52.8534 30.1807C52.9514 30.3923 53.0015 30.6229 53 30.856V69.144C53.0014 69.3771 52.9514 69.6077 52.8533 69.8192C52.7553 70.0307 52.6117 70.2179 52.4329 70.3675L52.4329 70.3675ZM25.4869 56.5022C25.1665 56.1224 24.9936 55.6399 25 55.1431V44.8569C24.9936 44.3601 25.1665 43.8775 25.4869 43.4977C25.6098 43.3465 25.764 43.2236 25.9388 43.1377C26.1137 43.0518 26.3052 43.0048 26.5 42.9999H33V57H26.5C26.3052 56.9952 26.1137 56.9482 25.9388 56.8623C25.764 56.7763 25.6098 56.6535 25.4869 56.5022V56.5022ZM54.9999 52.8149V47.185C55.5842 47.3886 56.0907 47.769 56.4491 48.2734C56.8074 48.7778 57 49.3812 57 50C57 50.6187 56.8074 51.2221 56.4491 51.7265C56.0907 52.2309 55.5842 52.6113 54.9999 52.8149V52.8149Z" fill="white"/>
<path d="M61.8536 42.0555C61.7607 41.9627 61.6505 41.889 61.5292 41.8388C61.4078 41.7885 61.2778 41.7627 61.1465 41.7627C61.0151 41.7627 60.8851 41.7885 60.7638 41.8388C60.6425 41.8891 60.5322 41.9627 60.4394 42.0556C60.3465 42.1484 60.2728 42.2587 60.2226 42.38C60.1723 42.5013 60.1465 42.6314 60.1465 42.7627C60.1465 42.894 60.1724 43.024 60.2226 43.1454C60.2729 43.2667 60.3465 43.3769 60.4394 43.4698H60.4393C62.1952 45.2259 63.1816 47.6075 63.1816 50.0908C63.1816 52.5741 62.1952 54.9557 60.4393 56.7118C60.3465 56.8047 60.2728 56.9149 60.2226 57.0362C60.1723 57.1576 60.1464 57.2876 60.1465 57.4189C60.1465 57.5503 60.1723 57.6803 60.2226 57.8016C60.2728 57.923 60.3465 58.0332 60.4394 58.1261C60.5322 58.2189 60.6425 58.2926 60.7638 58.3428C60.8852 58.3931 61.0152 58.4189 61.1465 58.4189C61.2778 58.4189 61.4079 58.3931 61.5292 58.3428C61.6505 58.2925 61.7608 58.2189 61.8536 58.126C63.9845 55.9948 65.1816 53.1045 65.1816 50.0907C65.1816 47.077 63.9845 44.1867 61.8536 42.0555V42.0555Z" fill="white"/>
<path d="M66.3248 38.5844C66.2319 38.4915 66.1217 38.4178 66.0003 38.3676C65.879 38.3173 65.749 38.2915 65.6177 38.2915C65.4863 38.2915 65.3563 38.3173 65.235 38.3676C65.1136 38.4179 65.0034 38.4915 64.9106 38.5844C64.8177 38.6772 64.744 38.7875 64.6938 38.9088C64.6435 39.0301 64.6177 39.1602 64.6177 39.2915C64.6177 39.4228 64.6435 39.5529 64.6938 39.6742C64.7441 39.7955 64.8177 39.9057 64.9106 39.9986H64.9105C67.5871 42.6752 69.0908 46.3055 69.0908 50.0908C69.0908 53.8761 67.5871 57.5064 64.9105 60.183C64.8177 60.2758 64.744 60.3861 64.6937 60.5074C64.6435 60.6288 64.6176 60.7588 64.6176 60.8901C64.6176 61.0215 64.6435 61.1515 64.6938 61.2728C64.744 61.3942 64.8177 61.5044 64.9106 61.5973C65.0034 61.6901 65.1137 61.7638 65.235 61.814C65.3563 61.8643 65.4864 61.8902 65.6177 61.8902C65.749 61.8902 65.8791 61.8643 66.0004 61.814C66.1217 61.7638 66.232 61.6901 66.3248 61.5972C69.3764 58.5455 71.0908 54.4065 71.0907 50.0908C71.0907 45.7751 69.3764 41.6361 66.3248 38.5844V38.5844Z" fill="white"/>
<path d="M69.3817 35.1133C69.2888 35.2061 69.2151 35.3164 69.1649 35.4377C69.1147 35.5591 69.0888 35.6891 69.0888 35.8204C69.0888 35.9517 69.1147 36.0818 69.165 36.2031C69.2153 36.3244 69.289 36.4346 69.3818 36.5275H69.3818C71.163 38.3087 72.5759 40.4233 73.5399 42.7505C74.5039 45.0778 75 47.5721 75 50.0911C75 52.6101 74.5038 55.1044 73.5398 57.4316C72.5759 59.7589 71.1629 61.8735 69.3817 63.6547C69.2888 63.7475 69.2152 63.8578 69.1649 63.9791C69.1147 64.1004 69.0888 64.2305 69.0888 64.3618C69.0888 64.4931 69.1147 64.6232 69.1649 64.7445C69.2152 64.8658 69.2889 64.9761 69.3817 65.0689C69.4746 65.1618 69.5848 65.2355 69.7062 65.2857C69.8275 65.336 69.9575 65.3618 70.0889 65.3618C70.2202 65.3618 70.3502 65.336 70.4716 65.2857C70.5929 65.2354 70.7031 65.1618 70.796 65.0689C74.7683 61.0965 77 55.7088 76.9999 50.091C76.9999 44.4732 74.7683 39.0855 70.7959 35.1131C70.703 35.0202 70.5928 34.9466 70.4714 34.8964C70.3501 34.8461 70.2201 34.8203 70.0887 34.8203C69.9574 34.8203 69.8274 34.8462 69.7061 34.8965C69.5847 34.9467 69.4745 35.0204 69.3817 35.1133V35.1133Z" fill="white"/>
</svg>
